<svg xmlns="http://www.w3.org/2000/svg" version="1.1" viewBox="-5.0 -10.0 110.0 135.0">
 <path d="m90.375 27.48c-0.33203-1.0195-1.5625-2.1055-2.5-2.668l-34.793-19.762c-1.9062-1.082-4.2695-1.082-6.1758 0l-34.781 19.762c-1.957 1.125-3.1562 3.1758-3.168 5.4375v39.5c0 2.25 1.207 4.3242 3.168 5.4375l34.793 19.762c1.9258 1.082 4.2383 1.0938 6.1758 0l34.793-19.762c1.9492-1.1055 3.168-3.1875 3.168-5.4375l-0.003907-39.5c0-0.98047-0.23828-1.918-0.66797-2.7695zm-77.23-0.85547 34.793-19.762c0.63672-0.36328 1.3438-0.54297 2.0625-0.54297s1.4258 0.17578 2.0625 0.54297l34.793 19.762c0.33203 0.1875 0.63672 0.41797 0.89453 0.6875l-35.688 20.262c-1.2695 0.71875-2.8438 0.71875-4.1133 0l-35.688-20.262c0.26172-0.26172 0.5625-0.5 0.89453-0.6875zm0 46.75c-1.3008-0.73828-2.1055-2.125-2.1055-3.625l0.003907-39.5c0-0.38672 0.0625-0.76953 0.16797-1.1367l35.707 20.27c0.63672 0.36328 1.332 0.59375 2.043 0.70703v43.449c-0.35547-0.09375-0.69922-0.23047-1.0195-0.40625l-34.793-19.762zm75.812-3.625c0 1.5-0.8125 2.8867-2.1055 3.625l-34.793 19.762c-0.32422 0.1875-0.66797 0.32422-1.0195 0.40625v-43.449c0.70703-0.11328 1.4062-0.34375 2.043-0.70703l35.707-20.27c0.10547 0.36328 0.16797 0.75 0.16797 1.1367v39.5z"/>
 <path d="m50 32.605c3.7305 0 6.7695-2.4805 6.7695-5.5195-0.29297-7.293-13.25-7.293-13.543 0 0 3.043 3.043 5.5195 6.7695 5.5195zm0-8.9609c6.1992 0.15625 6.1992 6.707 0 6.875-6.1992-0.15625-6.1992-6.707 0-6.875z"/>
 <path d="m63.074 62.562c6.9805-0.46875 5.1445-11.613-1.375-10.438-5.6445 1.418-4.0938 10.426 1.375 10.438zm-2.4805-7.168c2.2305-3.5195 6.1875 0.80078 4.4883 3.7812-2.207 3.5117-6.1875-0.78125-4.4883-3.7812z"/>
 <path d="m80.605 44.895c-2.168-1.707-5.332-1.0117-6.582 1.4492-1.8945 3.25 0.63672 8.25 4.3242 8.1445 4.8867-0.042969 5.8945-7.0508 2.2617-9.5938zm-0.26172 6.2109c-2.207 3.5117-6.1875-0.78125-4.4883-3.7812 2.293-3.5508 6.1758 0.89453 4.4883 3.7812z"/>
 <path d="m67.418 72.062c-1.707-6.793-10.457-4.875-9.1562 2.0117 1.6875 6.7812 10.457 4.8867 9.1562-2.0117zm-3.8984 4.1445c-3.375 0.63672-4.707-5.4492-1.375-6.2695 3.4062-0.625 4.6875 5.457 1.375 6.2695z"/>
 <path d="m38.449 51.605c-6.082 1.5742-3.7188 11.512 2.2695 10.344 6.1055-1.6055 3.707-11.5-2.2695-10.344zm3.375 7.0625c-2.207 3.5117-6.1875-0.78125-4.4883-3.7812 2.2305-3.5195 6.1875 0.80078 4.4883 3.7812z"/>
 <path d="m18.094 61.613c-6.082 1.5742-3.7188 11.512 2.2695 10.344 6.1055-1.6055 3.707-11.5-2.2695-10.344zm3.3867 7.0625c-2.207 3.5117-6.1875-0.78125-4.4883-3.7812 2.2305-3.5195 6.1875 0.80078 4.4883 3.7812z"/>
 <path d="m33.988 60.762c-1.6992-6.793-10.457-4.875-9.1562 2.0117 1.6875 6.7812 10.457 4.8867 9.1562-2.0117zm-3.8945 4.1445c-3.375 0.63672-4.707-5.4492-1.375-6.2695 3.4062-0.625 4.6875 5.457 1.375 6.2695z"/>
 <path d="m76.957 59.938c-6.082 1.5742-3.7188 11.512 2.2695 10.344 6.1055-1.6055 3.707-11.5-2.2695-10.344zm3.3867 7.0625c-2.207 3.5117-6.1875-0.78125-4.4883-3.7812 2.2305-3.5195 6.1875 0.80078 4.4883 3.7812z"/>
<text x="0.0" y="117.5" font-size="5.0" font-weight="bold" font-family="Arbeit Regular, Helvetica, Arial-Unicode, Arial, Sans-serif" fill="#000000">Created by Yoyon Pujiyono</text><text x="0.0" y="122.5" font-size="5.0" font-weight="bold" font-family="Arbeit Regular, Helvetica, Arial-Unicode, Arial, Sans-serif" fill="#000000">from Noun Project</text></svg>