<svg xmlns="http://www.w3.org/2000/svg" version="1.1" viewBox="-5.0 -10.0 110.0 135.0">
 <path d="m46.875 64.062c0 6.25-9.375 6.25-9.375 0s9.375-6.25 9.375 0"/>
 <path d="m42.188 43.75c-2.5781 0-4.6875 2.1094-4.6875 4.6875s2.1094 4.6875 4.6875 4.6875 4.6875-2.1094 4.6875-4.6875-2.1094-4.6875-4.6875-4.6875zm0 6.25c-0.85938 0-1.5625-0.70312-1.5625-1.5625s0.70312-1.5625 1.5625-1.5625 1.5625 0.70312 1.5625 1.5625-0.70312 1.5625-1.5625 1.5625z"/>
 <path d="m46.875 79.688c0 6.25-9.375 6.25-9.375 0s9.375-6.25 9.375 0"/>
 <path d="m25 64.062c0 6.25-9.375 6.25-9.375 0s9.375-6.25 9.375 0"/>
 <path d="m25 48.438c0 6.25-9.375 6.25-9.375 0s9.375-6.25 9.375 0"/>
 <path d="m25 79.688c0 6.25-9.375 6.25-9.375 0s9.375-6.25 9.375 0"/>
 <path d="m89.062 7.8125h-40.625c-4.3125 0-7.8125 3.5-7.8125 7.8125v20.312h-29.688c-4.3125 0-7.8125 3.5-7.8125 7.8125v40.625c0 4.3125 3.5 7.8125 7.8125 7.8125h40.625c4.3125 0 7.8125-3.5 7.8125-7.8125v-20.312h29.688c4.3125 0 7.8125-3.5 7.8125-7.8125v-40.625c0-4.3125-3.5-7.8125-7.8125-7.8125zm-39.062 14.062c0-2.5781 2.1094-4.6875 4.6875-4.6875s4.6875 2.1094 4.6875 4.6875-2.1094 4.6875-4.6875 4.6875-4.6875-2.1094-4.6875-4.6875zm14.062 14.062c0-2.5781 2.1094-4.6875 4.6875-4.6875s4.6875 2.1094 4.6875 4.6875-2.1094 4.6875-4.6875 4.6875-4.6875-2.1094-4.6875-4.6875zm18.75 18.75c-2.5781 0-4.6875-2.1094-4.6875-4.6875s2.1094-4.6875 4.6875-4.6875 4.6875 2.1094 4.6875 4.6875-2.1094 4.6875-4.6875 4.6875zm-26.562 29.688c0 2.5781-2.1094 4.6875-4.6875 4.6875h-40.625c-2.5781 0-4.6875-2.1094-4.6875-4.6875v-40.625c0-2.5781 2.1094-4.6875 4.6875-4.6875h40.625c2.5781 0 4.6875 2.1094 4.6875 4.6875z"/>
<text x="0.0" y="117.5" font-size="5.0" font-weight="bold" font-family="Arbeit Regular, Helvetica, Arial-Unicode, Arial, Sans-serif" fill="#000000">Created by Roat Studio</text><text x="0.0" y="122.5" font-size="5.0" font-weight="bold" font-family="Arbeit Regular, Helvetica, Arial-Unicode, Arial, Sans-serif" fill="#000000">from Noun Project</text></svg>